<?xml version="1.0" standalone="no"?><!DOCTYPE svg PUBLIC "-//W3C//DTD SVG 1.1//EN" "http://www.w3.org/Graphics/SVG/1.1/DTD/svg11.dtd"><svg t="1733227121739" class="icon" viewBox="0 0 1024 1024" version="1.1" xmlns="http://www.w3.org/2000/svg" p-id="27760" xmlns:xlink="http://www.w3.org/1999/xlink" width="48" height="48"><path d="M256 192v229.888c85.888 1.28 159.36 32.576 220.48 93.632 61.056 61.12 92.288 134.592 93.632 220.48H800v64H192V192h64z m0 293.888V736h250.112c-1.28-68.16-26.24-126.592-74.88-175.232S324.16 487.168 256 485.888zM704 192a96 96 0 1 1 0 192 96 96 0 0 1 0-192z m0 64a32 32 0 1 0 0 64 32 32 0 0 0 0-64z" p-id="27761"></path></svg>