<?xml version="1.0" standalone="no"?><!DOCTYPE svg PUBLIC "-//W3C//DTD SVG 1.1//EN" "http://www.w3.org/Graphics/SVG/1.1/DTD/svg11.dtd"><svg t="1733111145034" class="icon" viewBox="0 0 1066 1024" version="1.1" xmlns="http://www.w3.org/2000/svg" p-id="6647" xmlns:xlink="http://www.w3.org/1999/xlink" width="49.96875" height="48"><path d="M64 512c0-259.2 210.133333-469.333333 469.333333-469.333333s469.333333 210.133333 469.333334 469.333333c0 46.72-26.88 77.056-58.581334 95.445333-29.226667 16.938667-66.432 26.24-99.413333 33.365334-10.453333 2.261333-20.650667 4.352-30.506667 6.4-23.594667 4.778667-45.482667 9.258667-66.133333 15.232-29.568 8.618667-46.506667 17.877333-54.784 27.178666L661.333333 661.333333l31.914667 28.288c-12.16 13.781333-20.010667 33.408-25.088 60.245334-3.626667 19.114667-5.333333 37.973333-7.168 58.325333-0.853333 9.429333-1.749333 19.2-2.858667 29.525333-3.157333 28.842667-8.362667 64.256-25.898666 92.501334-9.386667 15.189333-22.485333 28.586667-40.32 37.973333-17.578667 9.173333-37.418667 13.141333-58.581334 13.141333-259.2 0-469.333333-210.133333-469.333333-469.333333z m469.333333-384a384 384 0 1 0 0 768c10.624 0 16.213333-1.962667 19.029334-3.413333a18.688 18.688 0 0 0 7.381333-7.338667c6.186667-9.984 10.325333-27.306667 13.525333-56.746667 0.768-7.082667 1.493333-14.976 2.261334-23.381333 2.005333-22.144 4.352-47.786667 8.789333-71.210667 6.4-33.450667 18.176-70.528 45.056-100.864 25.130667-28.330667 62.165333-43.008 94.848-52.48 24.192-7.082667 51.456-12.629333 76.373333-17.749333 9.088-1.834667 17.877333-3.626667 26.026667-5.418667 33.408-7.210667 58.368-14.336 74.666667-23.808 13.952-8.021333 16.042667-14.08 16.042666-21.589333a384 384 0 0 0-384-384z" p-id="6648"></path><path d="M512 298.666667a106.666667 106.666667 0 1 1 213.333333 0 106.666667 106.666667 0 0 1-213.333333 0z m106.666667-21.333334a21.333333 21.333333 0 1 0 0 42.666667 21.333333 21.333333 0 0 0 0-42.666667zM256 384a106.666667 106.666667 0 1 1 213.333333 0 106.666667 106.666667 0 0 1-213.333333 0z m106.666667-21.333333a21.333333 21.333333 0 1 0 0 42.666666 21.333333 21.333333 0 0 0 0-42.666666zM277.333333 661.333333a106.666667 106.666667 0 1 1 213.333334 0 106.666667 106.666667 0 0 1-213.333334 0zM384 640a21.333333 21.333333 0 1 0 0 42.666667 21.333333 21.333333 0 0 0 0-42.666667z" p-id="6649"></path></svg>