<?xml version="1.0" standalone="no"?><!DOCTYPE svg PUBLIC "-//W3C//DTD SVG 1.1//EN" "http://www.w3.org/Graphics/SVG/1.1/DTD/svg11.dtd"><svg t="1733226225177" class="icon" viewBox="0 0 1024 1024" version="1.1" xmlns="http://www.w3.org/2000/svg" p-id="8610" xmlns:xlink="http://www.w3.org/1999/xlink" width="48" height="48"><path d="M512 56.888889a455.111111 455.111111 0 1 1 0 910.222222A455.111111 455.111111 0 0 1 512 56.888889z m0 56.888889a398.222222 398.222222 0 1 0 0 796.444444A398.222222 398.222222 0 0 0 512 113.777778z m0.170667 74.069333a324.266667 324.266667 0 1 1 0 648.533333 324.266667 324.266667 0 0 1 0-648.533333z m0 56.888889a267.377778 267.377778 0 1 0 0 534.755556 267.377778 267.377778 0 0 0 0-534.755556z m-0.170667 113.777778a153.6 153.6 0 1 1 0 307.2 153.6 153.6 0 0 1 0-307.2z m0 56.888889a96.711111 96.711111 0 1 0 0 193.422222 96.711111 96.711111 0 0 0 0-193.422222z" p-id="8611"></path></svg>