<?xml version="1.0" standalone="no"?><!DOCTYPE svg PUBLIC "-//W3C//DTD SVG 1.1//EN" "http://www.w3.org/Graphics/SVG/1.1/DTD/svg11.dtd"><svg t="1733111342212" class="icon" viewBox="0 0 1024 1024" version="1.1" xmlns="http://www.w3.org/2000/svg" p-id="12915" xmlns:xlink="http://www.w3.org/1999/xlink" width="48" height="48"><path d="M803.392213 853.333333a128.042667 128.042667 0 0 1-241.450666 0H42.47488A42.688 42.688 0 0 1 0.000213 810.666667c0-23.722667 19.029333-42.666667 42.474667-42.666667h519.466667a128.042667 128.042667 0 0 1 241.450666 0h177.749334a42.666667 42.666667 0 1 1 0 85.333333H803.413547z m-426.666666-682.666666h604.586666C1004.864213 170.666667 1024.000213 189.610667 1024.000213 213.333333c0 23.573333-18.986667 42.666667-42.709333 42.666667h-604.586667a128.042667 128.042667 0 0 1-241.429333 0H42.624213A42.538667 42.538667 0 0 1 0.000213 213.333333c0-23.573333 18.922667-42.666667 42.624-42.666666h92.650667A128.042667 128.042667 0 0 1 376.74688 170.666667zM256.000213 256a42.666667 42.666667 0 1 0 0-85.333333 42.666667 42.666667 0 0 0 0 85.333333z m725.333334 256c0 23.722667-19.157333 42.666667-42.773334 42.666667H85.440213A42.730667 42.730667 0 0 1 42.66688 512c0-23.722667 19.157333-42.666667 42.773333-42.666667h853.12c23.594667 0 42.773333 19.093333 42.773334 42.666667zM682.66688 853.333333a42.666667 42.666667 0 1 0 0-85.333333 42.666667 42.666667 0 0 0 0 85.333333z"  p-id="12916"></path></svg>